<?xml version="1.0" standalone="no"?>
<!DOCTYPE svg PUBLIC "-//W3C//DTD SVG 20010904//EN"
 "http://www.w3.org/TR/2001/REC-SVG-20010904/DTD/svg10.dtd">
<svg version="1.0" xmlns="http://www.w3.org/2000/svg"
 width="85.000000pt" height="85.000000pt" viewBox="0 0 1088.000000 1280.000000"
 preserveAspectRatio="xMidYMid meet">
<g transform="translate(0.000000,1280.000000) scale(0.100000,-0.100000)"
fill="#000000" stroke="none">
<path d="M2975 12491 c-72 -33 -115 -95 -115 -167 0 -54 40 -123 85 -146 13
-7 9 1 -12 23 -73 78 -71 167 7 233 46 38 101 52 150 37 170 -51 189 -292 28
-366 -69 -32 -232 -34 -355 -5 -118 28 -118 28 -118 94 0 48 -4 59 -29 83
l-29 28 24 -33 c24 -34 31 -94 12 -113 -7 -7 -36 0 -99 26 -49 20 -100 38
-114 41 -14 2 -59 12 -100 22 -53 12 -116 17 -215 16 -122 -1 -151 -4 -229
-28 -102 -31 -244 -101 -296 -147 -22 -19 -27 -28 -15 -24 11 4 38 12 60 17
117 28 117 28 104 44 -17 21 -2 30 72 43 36 6 66 18 79 31 19 19 31 22 91 18
58 -3 74 -8 106 -34 21 -17 47 -47 58 -67 23 -42 60 -64 69 -41 13 34 4 56
-44 105 -72 73 -66 88 28 69 63 -14 101 -30 150 -67 26 -19 31 -28 22 -38 -9
-11 -5 -17 20 -30 36 -19 53 -57 45 -97 -5 -19 -1 -37 9 -53 9 -13 16 -32 16
-41 0 -9 9 -18 20 -21 11 -3 20 -9 20 -13 0 -16 -43 -61 -86 -90 -39 -28 -66
-72 -51 -86 9 -10 64 24 94 60 44 49 57 96 50 180 -6 69 -6 70 10 42 9 -18 16
-55 16 -91 1 -139 -95 -233 -241 -235 -182 -1 -263 217 -119 321 41 30 43 38
4 18 -65 -34 -98 -89 -98 -162 0 -68 14 -103 59 -150 89 -91 262 -84 361 14
74 73 94 190 52 298 -11 30 -18 57 -16 60 5 4 60 26 97 38 9 3 52 -9 95 -25
91 -35 221 -62 303 -62 148 0 348 57 583 166 237 110 325 132 400 100 49 -21
79 -59 84 -109 10 -88 -51 -144 -147 -134 l-45 4 34 -14 c110 -46 223 59 191
177 -14 52 -62 106 -107 121 -54 18 -142 13 -214 -11 -35 -12 -152 -64 -259
-115 -174 -83 -324 -145 -351 -145 -17 0 -9 22 15 41 14 11 37 44 52 75 23 47
26 63 22 117 -6 73 -24 113 -73 160 -58 57 -146 72 -220 38z m-538 -297 c12
-8 27 -14 34 -14 23 0 109 -45 109 -58 0 -14 -40 -32 -70 -32 -11 0 -42 20
-70 45 -27 24 -59 49 -70 55 -11 6 -20 15 -20 21 0 13 57 2 87 -17z"/>
<path d="M7599 12442 c-73 -38 -112 -100 -117 -188 -5 -80 14 -137 63 -184 19
-19 35 -38 35 -43 0 -26 -120 20 -390 148 -220 105 -278 125 -362 125 -73 0
-114 -17 -155 -63 -58 -66 -54 -169 8 -222 38 -31 68 -39 121 -32 66 9 62 22
-8 22 -61 0 -68 2 -95 33 -24 26 -29 41 -29 82 0 41 5 55 31 85 74 84 168 72
439 -55 387 -182 631 -213 885 -115 79 31 105 33 155 14 60 -24 61 -25 39 -74
-30 -67 -34 -132 -15 -199 50 -170 284 -246 412 -134 106 93 98 253 -16 317
-23 12 -44 20 -47 17 -4 -3 -1 -6 5 -6 20 0 85 -64 98 -97 30 -70 4 -159 -61
-209 -69 -52 -204 -44 -279 18 -68 56 -98 148 -76 237 18 78 29 70 23 -18 -5
-69 -3 -85 17 -126 22 -46 93 -109 114 -102 22 7 16 29 -17 60 -20 17 -52 47
-71 65 -36 33 -47 62 -23 62 18 0 57 92 50 118 -9 38 6 72 43 94 27 16 32 23
22 30 -10 6 -5 16 22 38 52 45 142 75 212 71 25 -1 11 -32 -30 -66 -45 -38
-66 -79 -52 -105 6 -11 14 -20 18 -20 11 0 52 39 52 50 0 18 54 72 91 90 62
32 146 25 186 -15 6 -7 32 -15 58 -18 63 -9 90 -24 75 -43 -10 -11 -7 -16 15
-24 14 -5 37 -10 51 -10 14 0 41 -7 61 -15 47 -20 51 -14 13 19 -89 75 -272
147 -426 167 -151 20 -344 -9 -518 -79 -86 -34 -89 -35 -103 -16 -19 26 -10
80 19 111 15 16 17 22 7 18 -30 -11 -53 -68 -46 -114 5 -41 4 -43 -29 -57 -68
-28 -168 -45 -278 -46 -122 -1 -168 12 -220 60 -104 98 -56 294 82 332 78 20
168 -28 198 -105 21 -57 9 -106 -39 -163 -28 -32 -29 -35 -7 -21 93 59 103
191 21 269 -67 64 -149 76 -232 32z m781 -291 c-14 -9 -46 -35 -73 -58 -49
-44 -75 -51 -122 -33 -38 14 -27 30 41 58 32 13 73 30 89 37 63 27 108 24 65
-4z"/>
<path d="M10285 12459 c-4 -6 -5 -13 -2 -16 7 -7 27 6 27 18 0 12 -17 12 -25
-2z"/>
<path d="M9544 12420 c-47 -18 -36 -30 28 -30 54 0 60 2 48 14 -21 20 -51 26
-76 16z"/>
<path d="M10171 12407 c-37 -18 -35 -30 7 -48 24 -10 44 -27 54 -49 15 -31 16
-32 27 -12 23 43 11 86 -30 107 -33 18 -28 18 -58 2z"/>
<path d="M9411 12397 c-22 -11 -30 -22 -51 -67 -4 -8 -19 -16 -33 -18 -58 -7
-81 -79 -40 -124 15 -17 18 -14 39 39 27 66 70 114 125 139 22 9 36 21 32 25
-17 15 -49 18 -72 6z"/>
<path d="M10008 12371 c-12 -15 -28 -37 -34 -47 -11 -18 -13 -17 -22 8 -13 33
-44 50 -80 46 -36 -4 -42 -35 -9 -47 29 -11 36 -27 44 -104 l6 -60 28 54 c32
65 107 137 149 146 33 6 39 17 14 27 -37 14 -72 6 -96 -23z"/>
<path d="M1084 12380 c-23 -9 -39 -28 -31 -36 2 -2 27 1 56 8 28 6 48 15 44
19 -15 13 -48 18 -69 9z"/>
<path d="M1196 12375 c-17 -13 -17 -14 10 -21 116 -28 197 -127 210 -258 4
-36 10 -66 14 -66 18 0 40 40 40 74 0 31 -5 40 -30 54 -24 13 -29 22 -24 37
19 59 16 82 -11 104 -16 12 -42 21 -61 21 -22 0 -34 5 -34 13 0 22 -44 57 -71
57 -13 0 -32 -7 -43 -15z"/>
<path d="M9660 12381 c0 -6 4 -11 8 -11 5 0 27 -16 50 -36 36 -30 43 -33 48
-19 11 28 -28 70 -69 73 -22 2 -37 -1 -37 -7z"/>
<path d="M3146 12337 c-14 -14 -26 -34 -26 -44 -2 -77 -10 -118 -24 -129 -9
-6 -16 -16 -16 -22 0 -6 -12 -20 -27 -31 -33 -24 -15 -27 30 -5 41 21 85 62
103 96 18 34 18 119 0 143 -13 18 -14 18 -40 -8z"/>
<path d="M940 12310 c-19 -19 -29 -86 -12 -78 4 2 27 24 51 51 l44 47 -32 0
c-18 0 -40 -9 -51 -20z"/>
<path d="M7555 12300 c-14 -22 -6 -111 12 -148 22 -42 81 -87 133 -102 l35
-10 -27 23 c-56 45 -78 87 -78 147 0 46 -4 61 -23 78 -25 24 -42 28 -52 12z"/>
<path d="M362 12289 c2 -7 10 -15 17 -17 8 -3 12 1 9 9 -2 7 -10 15 -17 17 -8
3 -12 -1 -9 -9z"/>
<path d="M766 12269 c-14 -11 -26 -29 -26 -39 0 -33 -17 -31 -43 4 -31 40 -63
48 -109 28 l-33 -14 48 -13 c67 -18 121 -56 163 -115 20 -28 37 -50 38 -50 2
0 1 34 -2 76 -4 71 -3 78 18 94 15 11 21 23 17 34 -9 22 -39 20 -71 -5z"/>
<path d="M9520 12270 c-19 -11 -48 -22 -63 -25 -20 -4 -32 -16 -43 -41 -14
-33 -13 -39 4 -73 12 -22 17 -48 15 -68 -6 -39 32 -83 72 -83 32 0 32 10 0 40
-76 72 -46 206 50 224 38 8 88 -13 99 -39 11 -30 6 -80 -10 -103 -14 -21 -14
-22 9 -22 25 0 49 21 60 53 10 27 -9 65 -43 82 -16 8 -30 22 -30 30 0 18 -39
45 -65 45 -11 -1 -36 -10 -55 -20z"/>
<path d="M10245 12231 c-9 -55 -57 -123 -116 -167 -28 -20 -49 -38 -47 -39 2
-2 27 1 57 6 65 10 98 4 112 -22 13 -24 36 -24 44 0 10 31 -15 69 -54 82 l-35
12 31 26 c43 36 54 69 37 109 -7 18 -15 32 -18 32 -2 0 -7 -18 -11 -39z"/>
<path d="M442 12237 c-26 -27 -28 -64 -6 -95 13 -19 13 -28 3 -57 -16 -44 -2
-78 46 -106 19 -12 35 -23 35 -25 0 -2 -13 -10 -29 -18 -30 -16 -46 -54 -36
-87 9 -26 34 -24 44 5 12 29 29 36 108 43 l63 6 -49 22 c-61 29 -124 85 -145
129 -32 67 -11 143 46 167 31 13 36 24 12 33 -33 13 -71 5 -92 -17z"/>
<path d="M3846 12249 c-54 -13 -57 -19 -10 -19 22 0 49 7 60 15 22 17 10 18
-50 4z"/>
<path d="M9785 12237 c4 -13 7 -40 8 -60 2 -44 23 -50 34 -9 9 34 5 52 -14 75
-22 24 -34 21 -28 -6z"/>
<path d="M1081 12231 c-12 -12 -21 -26 -21 -32 0 -6 -13 -27 -30 -46 -16 -18
-30 -44 -30 -57 0 -28 39 -66 68 -66 27 0 27 5 2 37 -35 45 -25 105 21 128 64
34 128 9 154 -60 21 -53 15 -108 -15 -140 -26 -28 -25 -35 3 -35 48 0 62 22
64 102 2 40 3 83 4 96 2 35 -36 69 -84 76 -23 3 -58 8 -79 12 -29 5 -40 2 -57
-15z"/>
<path d="M10039 12194 c-26 -12 -50 -31 -54 -41 -23 -58 -43 -123 -37 -123 4
0 32 15 62 33 46 28 56 39 67 77 22 74 16 82 -38 54z"/>
<path d="M6850 12200 c8 -5 33 -9 55 -9 31 0 36 2 20 9 -29 13 -94 13 -75 0z"/>
<path d="M892 12168 c-24 -24 -8 -108 21 -108 8 0 11 18 9 60 -4 61 -9 69 -30
48z"/>
<path d="M9272 12142 c-28 -28 -29 -75 -2 -102 28 -28 52 -26 45 3 -3 12 -9
45 -13 72 l-7 50 -23 -23z"/>
<path d="M9765 12063 c-11 -21 -36 -48 -55 -61 -30 -20 -44 -23 -102 -20 l-66
4 20 -28 c25 -36 61 -45 94 -24 14 10 28 24 31 32 3 9 20 14 48 14 62 0 92 45
69 104 -9 24 -17 20 -39 -21z"/>
<path d="M616 12083 c-3 -3 6 -27 19 -53 22 -43 30 -50 92 -73 37 -14 69 -21
71 -16 4 10 -65 119 -75 119 -5 0 -29 7 -55 14 -25 8 -49 12 -52 9z"/>
<path d="M927 12013 c-15 -14 -6 -55 18 -79 22 -22 31 -24 68 -19 35 6 46 3
61 -14 35 -38 96 -23 114 28 l10 30 -40 -15 c-77 -27 -148 -10 -189 45 -23 32
-31 36 -42 24z"/>
<path d="M1472 11973 c-16 -31 -23 -73 -12 -73 5 0 10 8 10 18 0 9 11 30 25
45 24 25 25 27 6 27 -11 0 -24 -8 -29 -17z"/>
<path d="M10101 11947 c-46 -23 -36 -36 28 -34 34 1 61 5 61 9 0 9 -42 38 -55
38 -5 0 -21 -6 -34 -13z"/>
<path d="M9241 11933 c8 -10 20 -22 27 -26 6 -4 12 -18 13 -30 0 -12 3 -16 6
-10 2 7 -1 29 -7 48 -8 25 -17 35 -32 35 -18 0 -19 -2 -7 -17z"/>
<path d="M9827 11938 c-26 -9 -29 -15 -42 -80 -4 -22 5 -22 50 -4 24 10 36 23
40 43 4 15 8 34 11 41 4 14 -20 15 -59 0z"/>
<path d="M1315 11893 l-50 -45 40 6 c43 6 75 35 75 67 0 27 -9 23 -65 -28z"/>
<path d="M9376 11918 c10 -35 22 -45 57 -51 58 -8 58 5 1 39 -31 19 -58 34
-61 34 -2 0 -1 -10 3 -22z"/>
<path d="M9940 11883 c-16 -21 -20 -35 -15 -64 5 -30 2 -42 -14 -58 -38 -38
-23 -101 29 -119 24 -9 30 -17 30 -40 0 -18 10 -38 25 -52 23 -22 29 -23 65
-14 21 6 45 7 52 3 7 -5 29 -9 49 -9 46 0 69 25 81 88 5 26 11 59 15 75 6 33
-19 77 -45 77 -10 0 -31 14 -47 30 -34 36 -76 39 -105 10 -11 -11 -20 -32 -20
-46 l0 -25 29 20 c31 22 81 27 110 11 50 -26 51 -122 1 -163 -78 -66 -195 -30
-229 72 -25 77 -5 145 58 192 22 16 28 25 19 31 -27 17 -66 8 -88 -19z"/>
<path d="M10240 11900 c0 -5 4 -10 8 -10 5 0 28 -19 50 -42 l42 -42 0 32 c0
19 -8 40 -20 52 -21 21 -80 28 -80 10z"/>
<path d="M880 11864 c0 -31 31 -74 58 -80 15 -3 33 -7 40 -10 16 -5 15 21 -3
56 -9 18 -26 32 -43 36 -15 3 -33 7 -39 10 -7 2 -13 -3 -13 -12z"/>
<path d="M9530 11852 c0 -17 42 -42 70 -42 15 0 34 6 45 13 16 13 14 15 -26
21 -24 4 -54 9 -66 13 -13 3 -23 1 -23 -5z"/>
<path d="M1171 11814 c-59 -20 -62 -23 -42 -34 31 -16 78 -3 98 26 9 14 14 26
12 27 -2 1 -33 -7 -68 -19z"/>
<path d="M615 11820 c-22 -8 -51 -38 -44 -44 2 -2 33 1 68 8 49 9 60 14 50 23
-22 17 -52 22 -74 13z"/>
<path d="M755 11796 l-29 -12 46 -29 c63 -40 82 -75 81 -152 0 -44 3 -61 11
-56 55 31 62 81 16 121 -23 20 -30 35 -30 63 0 55 -44 86 -95 65z"/>
<path d="M10350 11779 c0 -8 6 -36 14 -64 13 -50 13 -50 24 -22 13 30 4 65
-22 86 -13 11 -16 11 -16 0z"/>
<path d="M9694 11761 c-29 -18 -63 -75 -51 -87 12 -12 69 33 83 65 21 50 17
52 -32 22z"/>
<path d="M466 11739 c-17 -14 -26 -30 -26 -49 0 -40 16 -46 34 -13 7 16 23 37
35 47 12 11 21 23 21 28 0 15 -37 8 -64 -13z"/>
<path d="M1050 11724 c0 -24 46 -74 76 -84 19 -7 37 -10 39 -8 11 10 -42 71
-72 83 -40 17 -43 17 -43 9z"/>
<path d="M9785 11692 c-8 -37 8 -78 36 -93 19 -10 21 -9 17 7 -3 11 -12 40
-19 67 -15 54 -25 59 -34 19z"/>
<path d="M648 11695 c-15 -8 -30 -24 -33 -35 -4 -11 -19 -27 -34 -35 -46 -23
-54 -66 -21 -108 11 -14 20 -36 20 -49 0 -26 32 -62 65 -72 12 -3 36 2 57 12
22 12 48 17 68 14 43 -6 80 29 80 76 l0 34 -39 -35 c-65 -59 -138 -61 -192 -7
-54 53 -32 158 34 161 36 2 61 -2 72 -12 15 -15 25 -10 25 10 0 20 -44 61 -64
61 -6 -1 -23 -7 -38 -15z"/>
<path d="M983 11588 c-6 -35 -9 -65 -7 -67 2 -2 13 4 24 14 23 21 27 72 7 99
-11 15 -14 10 -24 -46z"/>
<path d="M10368 11644 c-3 -5 -9 -23 -12 -41 -10 -44 -58 -107 -107 -140 -44
-29 -141 -54 -183 -46 -31 6 -34 -9 -6 -37 36 -36 106 -18 122 31 4 11 10 12
32 1 40 -18 64 -15 91 13 17 16 25 35 25 60 0 19 5 35 10 35 20 0 60 49 60 73
0 26 -24 65 -32 51z"/>
<path d="M420 11601 c-15 -29 -12 -77 5 -91 13 -11 15 -6 15 33 0 25 3 52 6
61 9 23 -13 20 -26 -3z"/>
<path d="M9863 11526 c7 -46 21 -62 60 -71 37 -10 34 2 -20 60 l-45 50 5 -39z"/>
<path d="M437 11473 c-12 -11 -8 -68 6 -86 6 -10 26 -21 42 -25 24 -7 31 -14
33 -39 6 -60 78 -88 122 -48 21 19 21 19 -27 37 -65 24 -117 69 -143 123 -23
48 -23 48 -33 38z"/>
<path d="M922 11423 c-18 -31 -31 -58 -28 -60 10 -10 58 20 66 42 12 31 13 75
3 75 -5 -1 -23 -26 -41 -57z"/>
<path d="M9915 11370 c3 -5 12 -10 18 -10 7 0 25 -11 40 -25 26 -25 27 -25 27
-5 0 15 -11 26 -35 36 -40 16 -59 18 -50 4z"/>
<path d="M789 11305 c-3 -2 -30 -7 -60 -9 -30 -3 -56 -5 -58 -6 -3 0 6 -11 19
-25 41 -43 120 -25 120 28 0 16 -11 22 -21 12z"/>
<path d="M10076 11275 c4 -11 11 -38 16 -60 28 -117 28 -117 44 -104 21 17 32
-1 40 -63 4 -26 17 -62 30 -80 31 -41 33 -122 4 -178 -19 -37 -76 -90 -97 -90
-6 0 -18 -12 -28 -26 -14 -22 -15 -28 -4 -35 32 -20 78 1 126 56 41 46 59 42
55 -12 -5 -87 -69 -209 -103 -200 -13 3 -24 -6 -38 -29 -19 -31 -24 -34 -69
-34 -50 0 -142 -33 -142 -50 0 -6 -8 -10 -18 -10 -19 0 -54 33 -91 87 -20 30
-64 53 -77 40 -10 -10 25 -64 60 -95 55 -48 125 -62 211 -42 22 5 41 7 44 5
11 -12 -75 -35 -127 -35 -136 0 -232 99 -232 242 0 113 74 188 186 188 58 0
97 -21 134 -72 32 -44 39 -44 15 1 -33 65 -122 109 -194 96 -60 -11 -118 -51
-148 -103 -38 -63 -39 -172 -4 -244 28 -58 96 -120 149 -136 54 -16 139 -14
187 4 65 26 75 23 92 -21 22 -56 20 -88 -15 -185 -91 -254 -60 -482 117 -859
109 -230 131 -327 93 -400 -26 -52 -65 -76 -123 -76 -42 0 -53 5 -81 33 -30
29 -33 38 -33 91 0 66 -10 71 -20 11 -9 -51 8 -99 45 -135 25 -24 41 -30 93
-33 52 -3 67 0 96 20 60 41 76 71 79 156 5 99 -11 147 -133 403 -96 201 -155
352 -142 365 3 4 28 -13 54 -38 207 -192 528 82 335 285 -37 40 -74 57 -121
57 -67 0 -126 -33 -153 -85 -8 -14 -3 -12 14 7 42 44 85 61 142 55 42 -4 55
-10 87 -45 93 -99 65 -227 -63 -282 -94 -40 -190 -11 -243 75 -28 45 -30 56
-33 162 -4 116 12 225 44 302 13 30 17 33 46 29 44 -7 91 7 114 34 l19 22 -29
-22 c-30 -23 -109 -31 -121 -12 -3 6 5 38 19 73 13 34 30 76 37 92 6 17 13 39
15 50 1 11 10 49 18 85 23 94 31 251 17 340 -16 104 -65 243 -111 320 -43 72
-96 138 -84 105z m154 -808 c0 -7 -9 -30 -20 -52 -11 -22 -20 -44 -20 -49 0
-25 -45 -116 -57 -116 -15 0 -33 40 -33 74 0 12 12 33 26 47 14 13 39 43 56
67 29 42 48 54 48 29z"/>
<path d="M908 11268 c-18 -6 -28 -17 -28 -29 0 -18 1 -19 25 -3 14 9 25 20 25
24 0 5 10 11 23 13 18 4 19 4 2 5 -11 0 -32 -4 -47 -10z"/>
<path d="M769 11148 c-49 -67 -115 -214 -139 -313 -20 -79 -22 -106 -17 -240
6 -163 22 -241 77 -384 31 -81 32 -85 14 -98 -36 -26 -102 -4 -128 45 -9 15
-15 21 -16 15 0 -7 13 -27 29 -45 26 -30 35 -33 85 -34 31 0 61 -5 66 -10 5
-5 19 -47 31 -94 32 -121 33 -307 2 -365 -42 -80 -98 -115 -181 -115 -151 1
-239 143 -166 268 25 42 84 81 124 82 37 0 89 -22 120 -52 20 -20 29 -25 22
-13 -23 44 -94 85 -149 85 -77 0 -163 -82 -178 -170 -14 -83 45 -182 130 -221
86 -40 206 -17 269 50 87 92 54 -18 -104 -349 -130 -274 -154 -372 -111 -465
48 -106 177 -136 259 -61 32 29 36 40 40 92 2 39 -1 65 -10 77 -11 15 -13 9
-10 -43 4 -57 2 -62 -31 -95 -30 -30 -42 -35 -80 -35 -52 0 -105 31 -127 75
-20 41 -16 128 8 200 12 34 48 118 81 187 187 392 217 653 106 930 l-26 64 25
57 26 56 45 -19 c115 -49 224 -32 304 48 148 148 84 404 -104 420 -30 2 -65 2
-79 -2 -49 -12 -126 -97 -126 -138 0 -7 7 1 16 17 59 115 190 139 282 52 57
-53 73 -150 39 -239 -46 -120 -208 -183 -317 -123 -22 12 -16 13 56 8 67 -5
88 -2 126 15 47 20 113 94 105 116 -8 22 -43 7 -72 -30 -50 -63 -82 -94 -100
-94 -11 0 -15 5 -11 15 3 8 0 15 -7 15 -7 0 -29 9 -49 20 -25 13 -47 17 -71
13 -44 -7 -72 9 -96 55 -12 22 -20 30 -21 20 0 -30 -17 -20 -51 28 -36 53 -59
120 -59 175 0 32 3 36 20 32 11 -3 29 -18 40 -34 11 -15 36 -37 55 -49 28 -17
38 -19 55 -10 13 7 19 17 16 27 -3 8 -6 16 -6 19 0 2 -17 12 -37 23 -101 51
-146 181 -89 256 14 17 27 53 31 81 10 63 23 90 38 75 20 -20 25 -12 37 56 6
37 16 75 21 86 21 37 0 28 -32 -15z m-26 -854 c26 -29 37 -50 37 -73 0 -36
-15 -71 -30 -71 -12 0 -60 104 -60 129 0 9 -7 25 -15 35 -8 11 -15 34 -14 50
l0 31 22 -29 c12 -17 39 -49 60 -72z"/>
<path d="M10100 9791 c0 -22 38 -86 67 -113 35 -33 73 -48 123 -48 50 0 70 8
70 30 0 32 -37 53 -108 59 -67 6 -80 13 -128 60 -13 13 -24 19 -24 12z"/>
<path d="M766 9690 c-9 -17 -22 -30 -27 -30 -6 0 -22 -9 -36 -20 -18 -14 -41
-20 -79 -20 -41 0 -59 -5 -80 -23 -43 -38 -28 -57 46 -57 93 0 140 32 180 123
25 56 22 71 -4 27z"/>
<path d="M10241 8994 c-1 -22 6 -49 14 -60 14 -18 15 -16 9 21 -11 67 -23 86
-23 39z"/>
<path d="M628 8901 c-5 -18 -8 -43 -8 -55 1 -19 2 -19 11 -3 6 9 9 34 7 55
l-3 37 -7 -34z"/>
<path d="M625 4255 c-104 -36 -139 -162 -88 -315 8 -25 53 -125 99 -222 88
-186 147 -325 158 -370 9 -38 -11 -36 -49 4 -41 44 -100 68 -165 68 -131 0
-230 -91 -230 -210 0 -67 18 -107 68 -152 72 -65 157 -64 226 4 29 28 31 33 9
15 -75 -58 -149 -59 -213 -1 -124 112 -37 304 138 304 69 0 129 -34 167 -95
29 -47 30 -51 30 -179 -1 -93 -6 -151 -19 -201 -26 -101 -37 -114 -84 -108
-46 6 -96 -16 -112 -50 l-11 -22 18 22 c37 45 133 55 133 14 0 -15 -32 -104
-60 -166 -5 -11 -19 -71 -31 -134 -27 -144 -23 -323 10 -441 28 -96 101 -243
146 -295 l36 -40 -16 39 c-8 21 -15 51 -15 66 0 33 -19 90 -30 90 -5 0 -10 -6
-13 -12 -9 -24 -27 7 -33 57 -4 30 -19 68 -36 95 -25 39 -29 52 -24 92 8 70
40 125 94 159 58 37 71 58 47 75 -23 17 -59 -1 -114 -56 -55 -56 -65 -53 -57
17 8 67 32 125 71 172 26 30 30 31 35 15 6 -16 11 -12 28 23 23 43 60 61 102
48 24 -8 120 34 120 52 0 32 49 -2 91 -63 31 -46 75 -72 91 -56 13 13 -52 93
-97 120 -36 21 -50 23 -129 19 -78 -4 -87 -3 -65 8 74 40 198 22 261 -39 53
-52 73 -100 73 -182 0 -60 -4 -76 -27 -111 -76 -115 -243 -106 -308 15 -23 44
-27 35 -4 -11 38 -74 88 -107 164 -107 132 0 209 83 210 225 0 207 -188 328
-379 244 -24 -11 -46 -17 -49 -14 -3 2 -15 29 -27 59 l-22 54 24 58 c72 177
86 366 40 544 -32 125 -88 272 -148 392 -92 183 -118 303 -85 383 31 73 136
99 195 49 40 -34 58 -92 43 -141 -8 -27 -8 -33 0 -25 6 6 13 37 16 68 6 74
-15 116 -73 144 -48 23 -75 24 -130 5z m135 -1560 c6 -19 8 -40 3 -48 -22 -35
-116 -147 -120 -143 -10 9 7 74 22 86 8 7 15 22 15 35 0 12 7 37 16 56 34 69
45 71 64 14z"/>
<path d="M10084 4151 c-49 -30 -64 -59 -64 -121 0 -30 5 -62 10 -70 7 -11 8
-3 4 26 -22 144 152 207 233 85 48 -71 29 -166 -77 -391 -191 -407 -220 -646
-111 -926 l30 -76 -20 -37 c-10 -19 -19 -42 -19 -49 0 -22 -25 -23 -71 -3 -94
43 -233 18 -301 -55 -66 -71 -92 -215 -53 -297 51 -109 189 -157 287 -99 32
19 73 74 82 112 5 18 1 15 -13 -11 -24 -43 -73 -87 -107 -95 -49 -12 -122 2
-160 31 -123 94 -83 316 68 379 47 20 138 20 185 1 47 -20 39 -27 -17 -14 -94
22 -183 -8 -236 -80 -40 -55 -41 -61 -9 -61 19 0 37 15 71 60 46 58 84 84 92
61 7 -20 93 -51 143 -51 43 0 51 -3 71 -33 14 -20 30 -31 40 -29 35 7 108
-141 108 -220 0 -40 -18 -35 -78 22 -51 48 -92 64 -107 40 -11 -19 5 -48 34
-60 61 -25 121 -117 121 -187 0 -26 -24 -79 -46 -101 -8 -7 -14 -29 -14 -47 0
-53 -17 -87 -38 -81 -22 7 -42 -29 -42 -75 0 -16 -7 -46 -15 -67 l-15 -37 36
40 c95 107 174 342 174 519 0 104 -31 309 -54 356 -28 55 -58 150 -52 165 3
10 19 15 46 15 33 0 48 -6 71 -29 16 -16 29 -26 29 -21 0 15 -61 60 -83 61
-101 4 -89 -4 -116 84 -31 104 -39 296 -15 367 25 76 110 138 190 138 37 0
108 -30 138 -58 58 -55 71 -126 35 -199 -51 -106 -168 -124 -259 -40 l-34 32
25 -34 c39 -53 84 -73 151 -69 98 7 168 87 168 191 0 96 -62 175 -158 203 -92
27 -171 6 -243 -63 -21 -20 -39 -30 -43 -25 -10 17 40 144 150 378 140 298
161 397 101 486 -51 75 -152 102 -223 59z m66 -1557 c11 -26 20 -52 20 -58 0
-7 9 -29 20 -51 21 -42 26 -75 10 -75 -5 0 -14 9 -20 20 -6 11 -31 43 -55 70
-50 57 -49 52 -34 103 13 50 34 47 59 -9z"/>
<path d="M604 4027 c3 -27 10 -56 15 -65 6 -10 7 1 4 34 -3 27 -10 56 -15 64
-6 10 -7 -1 -4 -33z"/>
<path d="M10237 3963 c-3 -5 -7 -30 -11 -58 -8 -61 10 -40 20 23 6 38 2 54 -9
35z"/>
<path d="M511 3341 c-12 -8 -12 -13 2 -35 19 -28 33 -33 116 -39 36 -3 57 -10
63 -21 5 -9 15 -16 23 -16 8 0 22 -11 31 -25 23 -36 28 -24 9 21 -19 45 -58
90 -97 110 -30 16 -125 19 -147 5z"/>
<path d="M10190 3238 c-48 -25 -95 -84 -105 -133 l-6 -30 16 25 c27 41 75 64
143 71 51 5 69 11 90 33 26 26 27 27 8 42 -29 21 -96 17 -146 -8z"/>
<path d="M866 1655 c-7 -20 16 -35 61 -40 24 -3 30 -2 16 3 -12 4 -33 17 -47
29 -19 16 -26 18 -30 8z"/>
<path d="M668 1623 c-27 -26 -28 -26 -48 -8 -25 22 -75 24 -97 3 -8 -9 -18
-31 -22 -49 -4 -23 -13 -35 -26 -37 -49 -9 -81 -72 -56 -111 7 -11 14 -4 30
26 53 105 175 165 291 143 56 -11 67 -1 40 33 -29 37 -76 37 -112 0z"/>
<path d="M9952 1550 c-12 -11 -28 -20 -36 -20 -8 0 -18 -5 -22 -11 -4 -8 4 -9
27 -4 42 9 69 23 69 35 0 19 -18 19 -38 0z"/>
<path d="M880 1520 c0 -5 15 -32 33 -61 31 -51 32 -52 35 -25 6 48 -6 73 -38
84 -16 6 -30 7 -30 2z"/>
<path d="M10039 1509 c-12 -12 -17 -25 -12 -29 4 -4 38 -10 75 -12 l66 -4 -13
27 c-23 44 -81 53 -116 18z"/>
<path d="M581 1464 c-12 -15 -21 -34 -21 -43 0 -9 -9 -34 -19 -55 -11 -21 -17
-45 -14 -54 4 -10 33 -43 65 -75 51 -50 63 -58 86 -52 29 6 62 39 62 61 0 17
0 17 -41 0 -93 -39 -164 52 -109 141 40 66 151 67 212 1 l28 -30 0 36 c0 52
-31 80 -79 73 -23 -4 -43 -1 -55 8 -33 25 -91 19 -115 -11z"/>
<path d="M10198 1476 c-24 -18 -23 -22 11 -35 45 -19 100 -83 125 -146 22 -52
25 -56 35 -37 6 11 11 31 11 45 0 24 -37 67 -58 67 -7 0 -12 16 -12 39 0 63
-66 102 -112 67z"/>
<path d="M9883 1430 c-14 -6 -26 -24 -33 -50 -6 -23 -9 -44 -7 -46 5 -5 87 90
87 100 0 8 -21 7 -47 -4z"/>
<path d="M407 1372 c-22 -25 -21 -65 2 -86 18 -16 18 -14 17 44 0 33 -1 60 -2
60 0 0 -8 -8 -17 -18z"/>
<path d="M964 1333 c3 -21 6 -50 6 -65 0 -37 15 -36 29 2 12 35 -2 85 -26 94
-13 5 -15 0 -9 -31z"/>
<path d="M9976 1337 c-15 -15 -26 -37 -26 -53 l0 -27 24 22 c28 26 88 45 119
36 56 -16 79 -30 92 -56 21 -40 19 -92 -6 -123 -26 -33 -84 -36 -122 -6 -32
26 -37 25 -37 -3 0 -31 39 -67 73 -67 15 0 37 10 49 23 12 12 36 29 52 37 45
22 58 55 40 98 -8 19 -14 49 -14 66 0 22 -8 40 -25 56 -21 19 -31 22 -67 16
-50 -8 -53 -8 -95 0 -26 5 -37 1 -57 -19z"/>
<path d="M835 1283 c0 -79 -20 -117 -79 -148 -20 -11 -36 -23 -36 -28 0 -15
45 -24 73 -15 34 12 51 42 44 78 -5 22 0 31 24 49 37 27 40 80 7 111 -12 11
-24 20 -27 20 -3 0 -6 -30 -6 -67z"/>
<path d="M8353 1282 c-116 -41 -173 -123 -173 -246 0 -49 7 -85 20 -115 25
-54 25 -58 -2 -66 -13 -4 -38 -14 -55 -22 -31 -14 -38 -13 -120 17 -285 103
-510 74 -922 -120 -215 -101 -318 -120 -388 -74 -34 22 -63 74 -63 112 0 78
57 126 141 120 28 -2 44 1 39 6 -5 5 -30 11 -57 13 -92 8 -155 -51 -155 -146
0 -59 21 -102 68 -138 30 -22 49 -28 105 -31 92 -6 165 18 384 123 203 97 343
155 375 155 21 0 20 -3 -15 -41 -94 -104 -100 -232 -16 -330 80 -95 201 -104
291 -23 46 42 64 90 57 150 -5 47 -43 106 -80 125 -18 10 -16 6 7 -17 75 -76
74 -172 -4 -238 -120 -100 -290 -4 -290 166 0 82 82 173 165 183 l40 5 -40
-15 c-44 -17 -99 -66 -121 -107 -14 -28 -19 -104 -8 -132 9 -24 41 -19 59 8 9
13 18 53 20 87 2 38 9 68 18 74 7 5 16 18 20 27 3 10 21 27 39 39 29 18 45 20
143 16 81 -3 128 -10 180 -28 70 -24 70 -24 68 -59 -3 -47 13 -93 39 -116 19
-17 19 -16 -2 14 -26 34 -32 94 -13 113 8 8 34 3 95 -21 45 -18 87 -35 93 -38
5 -3 16 -7 25 -8 8 -1 53 -10 100 -20 126 -27 310 -25 420 4 104 28 251 98
305 145 l40 36 -40 -14 c-22 -8 -52 -14 -67 -15 -15 0 -39 -5 -54 -10 -21 -8
-24 -14 -16 -22 7 -7 12 -15 12 -20 0 -9 -67 -28 -101 -28 -14 0 -39 -11 -55
-25 -69 -59 -225 -10 -264 84 -14 36 -49 58 -61 39 -19 -29 -8 -59 41 -109 28
-28 50 -55 50 -59 0 -15 -26 -18 -71 -10 -94 18 -184 70 -176 102 4 13 -4 23
-24 34 -34 17 -52 56 -44 94 7 31 -23 104 -51 124 -17 13 -16 16 22 52 22 22
54 51 72 66 32 26 44 68 18 68 -7 0 -34 -18 -59 -40 -62 -55 -82 -108 -74
-203 7 -80 -7 -74 -22 10 -28 146 80 273 231 273 69 0 113 -17 150 -56 76 -82
62 -206 -31 -265 -25 -16 -38 -29 -29 -29 25 0 96 57 113 91 25 48 22 130 -7
186 -49 96 -177 137 -295 95z m-82 -468 c13 -14 43 -39 67 -56 23 -16 40 -33
37 -38 -6 -10 -64 5 -79 20 -5 5 -17 10 -25 10 -28 0 -121 43 -121 56 0 40 86
45 121 8z"/>
<path d="M9790 1280 c-20 -20 -28 -88 -13 -104 5 -5 52 102 53 122 0 9 -23 -1
-40 -18z"/>
<path d="M1093 1240 c-18 -10 -39 -33 -48 -50 -16 -32 -16 -32 7 -25 39 12 67
34 83 65 19 36 6 40 -42 10z"/>
<path d="M2200 1251 c-43 -14 -84 -38 -107 -63 -52 -55 -68 -158 -36 -225 17
-37 85 -93 112 -93 9 0 -3 11 -26 25 -84 51 -105 160 -47 248 80 121 303 95
374 -43 35 -69 38 -172 6 -216 -12 -16 -13 -10 -9 48 8 93 -2 133 -44 179 -37
41 -86 73 -96 63 -12 -13 16 -61 49 -83 37 -26 84 -77 84 -92 0 -5 -6 -9 -12
-9 -18 -1 -60 -94 -52 -114 14 -35 -5 -82 -41 -102 -22 -12 -30 -21 -22 -26
32 -20 -81 -90 -177 -110 -82 -16 -90 -2 -34 59 60 64 72 87 58 113 -15 28
-41 13 -74 -44 -31 -52 -76 -83 -141 -95 -55 -10 -100 0 -127 29 -10 11 -31
20 -46 20 -37 0 -102 19 -102 30 0 4 6 10 13 13 24 9 -8 26 -70 36 -34 5 -72
15 -85 21 -15 7 -9 -2 15 -24 54 -48 176 -110 282 -142 79 -24 107 -27 235
-28 109 -1 165 4 225 18 44 10 87 19 95 20 8 1 26 7 40 14 14 6 54 23 90 37
62 24 66 25 78 8 21 -28 7 -84 -28 -115 -32 -29 -32 -35 1 -18 29 16 50 66 48
115 -2 25 0 47 3 50 16 17 156 47 240 52 117 7 146 -2 194 -65 29 -39 34 -52
34 -101 0 -61 16 -95 49 -104 24 -6 34 18 33 80 -1 80 -57 149 -147 181 -24 8
-26 11 -9 11 55 2 134 -51 164 -110 65 -126 -29 -290 -165 -289 -36 1 -102 37
-128 71 -50 66 -42 145 21 213 l27 29 -26 -19 c-154 -111 -53 -340 142 -322
107 11 189 110 189 230 0 71 -16 113 -65 167 -21 23 -35 44 -32 48 11 11 159
-48 362 -144 242 -115 300 -135 385 -135 107 -1 178 50 196 140 23 117 -90
214 -197 169 l-34 -15 41 5 c90 11 154 -39 154 -120 0 -109 -97 -159 -239
-123 -34 9 -131 48 -214 87 -178 83 -347 142 -471 164 -156 27 -256 17 -427
-42 -105 -36 -107 -36 -142 -20 -19 9 -42 17 -50 17 -26 0 -28 16 -7 63 81
183 -26 366 -225 382 -33 2 -71 1 -85 -4z m356 -472 c7 -6 11 -15 8 -20 -6
-10 -92 -49 -108 -49 -7 0 -29 -9 -51 -20 -42 -22 -69 -26 -63 -10 2 5 32 34
68 64 56 48 69 55 98 51 19 -2 40 -9 48 -16z"/>
<path d="M9891 1224 c-27 -35 -26 -56 4 -92 21 -25 24 -34 15 -56 -18 -49 17
-96 73 -96 40 0 38 11 -7 55 -53 51 -64 96 -42 168 13 44 13 47 -4 47 -10 0
-28 -12 -39 -26z"/>
<path d="M427 1233 c-26 -26 20 -103 63 -103 11 0 20 2 20 5 0 4 -60 86 -74
103 -2 1 -6 -1 -9 -5z"/>
<path d="M9620 1216 c0 -2 6 -19 14 -37 13 -31 71 -77 82 -66 12 12 -27 77
-55 91 -30 16 -41 19 -41 12z"/>
<path d="M10350 1199 c0 -14 -5 -40 -11 -58 -14 -41 -7 -48 20 -20 25 27 27
57 6 85 -14 18 -14 18 -15 -7z"/>
<path d="M560 1107 c0 -37 76 -55 106 -25 14 13 11 16 -28 21 -24 3 -52 9 -61
13 -11 4 -17 1 -17 -9z"/>
<path d="M1118 1113 c-30 -8 -20 -17 42 -39 66 -23 81 -12 34 25 -26 21 -41
23 -76 14z"/>
<path d="M898 1098 c-16 -14 -44 -76 -36 -83 3 -4 79 13 85 19 1 1 9 19 18 39
l15 37 -33 0 c-18 0 -40 -6 -49 -12z"/>
<path d="M9529 1061 c-13 -11 -21 -22 -18 -25 3 -3 34 -1 69 6 57 10 62 12 45
24 -27 20 -69 17 -96 -5z"/>
<path d="M10298 1058 c-10 -15 -31 -35 -48 -44 -39 -24 -38 -34 3 -34 44 0 69
28 65 71 l-3 33 -17 -26z"/>
<path d="M441 1041 c-15 -27 4 -76 34 -89 34 -16 31 -25 -10 -45 -44 -21 -60
-57 -44 -104 9 -28 8 -38 -5 -58 -21 -33 -20 -57 5 -89 14 -18 30 -26 52 -26
37 0 70 18 49 27 -7 3 -26 16 -42 30 -82 69 -22 208 119 275 l53 25 -64 6
c-81 7 -97 14 -104 43 -7 29 -29 31 -43 5z"/>
<path d="M9770 1028 c0 -40 23 -71 64 -84 37 -13 38 -13 32 9 -3 12 -6 30 -6
39 0 18 -30 41 -67 53 -19 5 -23 3 -23 -17z"/>
<path d="M1295 997 c28 -25 53 -46 58 -47 4 0 7 11 7 23 0 32 -29 57 -76 64
l-39 6 50 -46z"/>
<path d="M9260 1013 c0 -9 -12 -30 -27 -45 -26 -27 -26 -28 -5 -28 22 0 35 17
46 63 4 16 2 27 -4 27 -5 0 -10 -8 -10 -17z"/>
<path d="M9376 1004 c-9 -8 -16 -24 -16 -35 0 -19 3 -18 48 7 68 39 71 44 25
44 -24 0 -48 -7 -57 -16z"/>
<path d="M1058 991 c-17 -14 -38 -19 -71 -18 -51 2 -72 -12 -81 -53 -4 -14 -2
-32 3 -40 9 -12 17 -9 48 21 65 62 108 72 186 45 37 -13 37 -13 31 8 -15 52
-72 71 -116 37z"/>
<path d="M1441 973 c-2 -35 20 -73 42 -73 19 0 19 2 -5 28 -14 15 -28 36 -31
47 -4 18 -5 18 -6 -2z"/>
<path d="M10060 960 c18 -34 99 -33 112 2 4 10 -10 13 -58 14 -58 2 -63 0 -54
-16z"/>
<path d="M9556 947 c-14 -15 -26 -30 -26 -34 0 -4 27 -6 59 -5 77 5 119 -15
156 -74 26 -42 30 -44 42 -28 18 25 16 47 -8 78 -16 20 -29 26 -59 26 -29 0
-43 6 -57 25 -10 14 -32 28 -50 31 -26 5 -37 1 -57 -19z"/>
<path d="M693 925 c-40 -18 -57 -33 -72 -64 -12 -22 -21 -44 -21 -50 0 -9 87
10 110 24 14 8 70 95 70 107 0 14 -33 8 -87 -17z"/>
<path d="M1215 894 c45 -67 28 -167 -35 -199 -47 -24 -87 -19 -122 15 -26 27
-30 36 -25 67 4 20 16 46 28 59 l22 24 -30 0 c-64 0 -90 -82 -40 -126 15 -13
27 -30 27 -39 0 -27 38 -55 74 -55 19 0 38 5 41 10 3 6 23 10 44 10 56 0 85
27 83 76 -1 21 -1 67 -1 101 -1 52 -4 64 -23 77 -12 9 -33 16 -45 16 l-22 0
24 -36z"/>
<path d="M9434 884 c-22 -21 -25 -31 -20 -60 5 -23 2 -41 -9 -56 -33 -48 -2
-128 49 -128 10 0 34 -9 52 -21 46 -28 84 -22 109 17 11 17 32 38 47 47 37 22
46 61 21 95 -11 15 -30 28 -42 30 -25 4 -25 4 -5 -37 31 -63 -7 -126 -76 -126
-110 0 -154 142 -70 226 15 16 25 31 22 34 -14 13 -55 3 -78 -21z"/>
<path d="M10222 873 c-21 -22 -28 -24 -75 -18 -29 3 -61 9 -72 11 -22 5 -22 6
66 -66 43 -34 89 -120 89 -165 0 -44 -38 -98 -78 -110 -37 -11 -37 -24 0 -43
33 -15 71 -3 93 32 14 21 14 31 4 64 -10 34 -9 44 5 63 25 37 20 68 -20 105
-36 35 -38 54 -4 54 40 0 69 92 30 96 -8 1 -25 -9 -38 -23z"/>
<path d="M9250 848 c-27 -30 -25 -66 6 -99 25 -26 25 -29 10 -50 -33 -48 -10
-119 40 -119 27 0 38 -10 49 -45 14 -40 58 -62 93 -45 l26 11 -52 30 c-96 54
-139 144 -130 269 6 77 -4 88 -42 48z"/>
<path d="M1397 793 c-3 -37 -3 -70 -1 -72 2 -2 15 4 29 13 35 23 42 61 18 94
-32 43 -40 37 -46 -35z"/>
<path d="M9930 849 c0 -7 10 -40 23 -72 19 -52 28 -62 70 -84 27 -13 51 -23
53 -21 6 6 -24 108 -35 122 -19 23 -111 68 -111 55z"/>
<path d="M877 812 c-21 -23 -22 -62 -3 -88 19 -25 23 -19 28 49 5 61 1 68 -25
39z"/>
<path d="M770 799 c-37 -69 -121 -131 -197 -147 l-37 -8 36 -17 c43 -20 75
-12 106 27 26 33 34 32 52 -6 19 -41 65 -58 88 -33 13 13 14 19 4 22 -37 14
-45 36 -38 110 3 40 4 73 1 73 -2 0 -9 -9 -15 -21z"/>
<path d="M9780 730 c0 -19 -4 -50 -9 -68 -11 -37 -1 -42 29 -12 25 25 26 61 0
91 l-19 24 -1 -35z"/>
<path d="M9888 660 c-3 -60 -8 -76 -26 -90 -12 -10 -27 -20 -33 -22 -22 -7 4
-38 33 -38 29 0 78 38 78 61 0 8 4 8 15 -1 8 -7 15 -18 15 -24 0 -21 45 -56
72 -56 58 0 78 24 28 33 -44 9 -116 81 -149 150 l-29 59 -4 -72z"/>
<path d="M1380 704 c0 -6 -14 -31 -30 -56 -33 -49 -89 -92 -139 -105 -39 -10
-42 -25 -8 -37 34 -12 74 6 87 39 8 20 16 25 45 25 45 0 75 29 75 73 0 17 -7
41 -15 51 -8 11 -15 15 -15 10z"/>
<path d="M6830 690 c-19 -12 42 -12 80 0 21 7 17 8 -20 9 -25 0 -52 -4 -60 -9z"/>
<path d="M907 653 c-27 -26 23 -97 65 -91 l26 3 -42 48 c-23 26 -45 44 -49 40z"/>
<path d="M3795 651 c11 -4 40 -12 65 -16 36 -6 43 -5 33 5 -6 7 -36 15 -65 17
-37 2 -47 1 -33 -6z"/>
<path d="M346 605 c-3 -9 0 -15 8 -15 8 0 16 7 20 15 3 9 0 15 -8 15 -8 0 -16
-7 -20 -15z"/>
<path d="M9721 572 c-5 -10 -26 -27 -45 -37 -45 -25 -46 -35 -1 -35 42 0 75
29 75 65 0 29 -15 33 -29 7z"/>
<path d="M1032 538 c3 -7 17 -19 32 -27 23 -11 33 -11 55 -1 26 13 26 13 -24
26 -62 17 -68 17 -63 2z"/>
<path d="M9502 483 c22 -21 74 -21 96 0 15 16 12 17 -48 17 -60 0 -63 -1 -48
-17z"/>
<path d="M10262 439 c2 -7 10 -15 17 -17 8 -3 12 1 9 9 -2 7 -10 15 -17 17 -8
3 -12 -1 -9 -9z"/>
</g>
</svg>
